<?xml version="1.0" encoding="UTF-8" standalone="no"?><!DOCTYPE svg PUBLIC "-//W3C//DTD SVG 1.1//EN" "http://www.w3.org/Graphics/SVG/1.1/DTD/svg11.dtd"><svg width="100%" height="100%" viewBox="0 0 3888 2655" version="1.1" xmlns="http://www.w3.org/2000/svg" xmlns:xlink="http://www.w3.org/1999/xlink" xml:space="preserve" xmlns:serif="http://www.serif.com/" style="fill-rule:evenodd;clip-rule:evenodd;stroke-linejoin:round;stroke-miterlimit:2;"><path d="M1878.16,901.073c-34.858,-57.653 -76.163,-119.209 -140.851,-138.034c-74.913,-21.8 -151.868,21.508 -217.143,64.244c-195.21,127.809 -383.201,266.319 -563.112,414.893l0.197,2.238c140.068,-9.659 280.135,-19.318 420.202,-28.977c101.199,-6.979 205.875,-14.921 295.307,-62.794c33.936,-18.166 67.016,-42.433 105.472,-44.124c47.777,-2.1 89.436,31.267 122.174,66.129c193.656,206.217 249.696,521.573 466.959,702.75c-136.999,-337.864 -300.581,-664.329 -489.205,-976.325Z" style="fill:#f2f2f2;fill-rule:nonzero;"/><path d="M3068.54,2650.17c-21.415,-27.042 -30.166,-33.375 -51.29,-60.667c-172.001,-222.458 -333.668,-452.43 -485.002,-689.916c-102.791,-161.292 -200.485,-325.681 -293.082,-493.167c-44.084,-79.625 -86.959,-159.875 -128.626,-240.75c-32.332,-62.708 -63.943,-125.792 -94.832,-189.25c-8.834,-18.125 -17.417,-36.333 -25.958,-54.583c-20.126,-42.917 -39.877,-86.042 -61.084,-128.375c-24.166,-48.25 -53.583,-98.834 -97.96,-131.25c-20.193,-15.357 -44.347,-24.652 -69.625,-26.792c-36.125,-2.333 -69.458,12.583 -100.791,28.875c-229.25,119.542 -443.874,269.417 -637.999,439.958c-194.621,170.924 -368.583,364.029 -518.335,575.375c-4.581,6.542 -15.415,0.292 -10.791,-6.291c18.209,-25.751 36.779,-51.223 55.709,-76.417c235.383,-313.054 524.011,-582.275 852.665,-795.333c55.294,-35.834 111.628,-69.987 169.001,-102.459c28.916,-16.375 57.959,-32.541 87.5,-47.708c28.959,-14.875 59.708,-28.25 92.791,-28.75c112.584,-1.75 170.876,125.75 210.917,211.542c12.584,27 25.32,53.916 38.208,80.75c48.709,101.874 99.292,202.819 151.75,302.833c32.375,61.75 65.459,123.139 99.251,184.167c105.166,190.041 216.944,376.236 335.334,558.583c156.834,241.541 312.416,454.916 491.083,680.791c4.917,6.25 -3.874,15.167 -8.834,8.834Z" style="fill:#e4e4e4;fill-rule:nonzero;"/><path d="M1011.17,1041.29c-6.541,-7.292 -13.041,-14.583 -19.625,-21.875c-51.917,-57.417 -107.623,-114.167 -178.917,-147.083c-33.991,-16.19 -71.102,-24.793 -108.75,-25.209c-38.916,0.125 -76.957,10.334 -112.915,24.625c-17,6.792 -33.626,14.5 -50,22.709c-18.709,9.416 -37.085,19.458 -55.375,29.583c-34.334,19 -68.223,38.833 -101.666,59.5c-66.543,41.125 -131.001,85.389 -193.376,132.792c-32.334,24.583 -64.001,49.972 -95.001,76.166c-28.833,24.334 -57.083,49.32 -84.75,74.959c-5.916,5.458 -14.75,-3.375 -8.833,-8.834c7.291,-6.791 14.666,-13.541 22.041,-20.208c20.834,-18.833 42.001,-37.306 63.501,-55.417c39.207,-33.083 79.429,-64.889 120.667,-95.416c64.126,-47.5 130.459,-91.778 198.999,-132.834c34.251,-20.5 68.973,-40.139 104.167,-58.916c10.626,-5.667 21.376,-11.209 32.251,-16.459c24.675,-12.446 50.313,-22.883 76.666,-31.208c37.328,-12.076 76.827,-15.956 115.792,-11.375c37.622,5.473 73.872,18.013 106.833,36.958c70,39.125 124.29,99.625 177.125,158.667c5.334,6 -3.459,14.875 -8.834,8.875Z" style="fill:#e4e4e4;fill-rule:nonzero;"/><path d="M2445.43,1636.28l167.736,-61.351l83.282,-30.46c27.124,-9.921 54.182,-21.215 82.221,-28.318c24.79,-6.281 49.979,-7.309 74.42,0.948c21.564,7.982 41.305,20.219 58.046,35.982c17.103,15.75 33.016,32.745 47.61,50.844c18.131,21.791 35.996,43.81 53.94,65.755c74.059,90.572 147.635,181.537 220.725,272.896c73.09,91.357 145.69,183.102 217.802,275.235c72.289,92.358 144.08,185.103 215.374,278.233c8.733,11.409 17.459,22.824 26.178,34.244c4.817,6.309 15.678,0.089 10.794,-6.309c-71.82,-94.067 -144.141,-187.749 -216.962,-281.047c-73,-93.52 -146.505,-186.643 -220.514,-279.37c-74.007,-92.725 -148.515,-185.048 -223.523,-276.969c-18.686,-22.9 -37.404,-45.775 -56.152,-68.625c-15.815,-19.274 -31.452,-38.757 -48.798,-56.697c-31.841,-32.93 -71.621,-62.032 -119.239,-62.821c-27.997,-0.465 -55.092,8.419 -81.103,17.83c-28.042,10.144 -56.017,20.479 -84.023,30.722l-168.91,61.779l-42.227,15.445c-7.494,2.741 -4.256,14.826 3.323,12.054l0,-0Z" style="fill:#e4e4e4;fill-rule:nonzero;"/><path d="M790.55,944.583c-85.24,-43.809 -194.402,-35.228 -272.731,19.505c149.407,25.776 297.18,60.265 442.562,103.291c-60.371,-35.379 -107.596,-90.81 -169.831,-122.796Z" style="fill:#f2f2f2;fill-rule:nonzero;"/><path d="M516.98,963.937l-16.41,13.338c5.551,-4.669 11.321,-9.046 17.249,-13.188c-0.28,-0.048 -0.559,-0.102 -0.839,-0.15Z" style="fill:#f2f2f2;fill-rule:nonzero;"/><path d="M2904.82,1636.9c-16.512,-20.098 -34.363,-41.143 -59.06,-49.307l-23.058,0.91c175.518,310.146 412.587,581.172 696.62,796.4c-204.834,-249.334 -409.668,-498.668 -614.502,-748.003Z" style="fill:#f2f2f2;fill-rule:nonzero;"/><path d="M1187.7,2421.95c9.401,-75.597 56.252,-150.081 128.348,-174.682c-28.426,77.791 -28.42,163.188 0.018,240.975c11.078,29.967 26.52,62.144 16.1,92.346c-6.484,18.792 -22.345,33.17 -40.075,42.16c-17.731,8.99 -37.409,13.275 -56.84,17.474l-3.825,3.163c-30.847,-69.654 -53.127,-145.839 -43.726,-221.436Z" style="fill:#f0f0f0;fill-rule:nonzero;"/><path d="M1316.77,2248.7c-41.98,47.036 -68.082,106.13 -74.58,168.839c-1.638,13.477 -1.142,27.128 1.47,40.451c2.964,12.895 9.328,24.763 18.429,34.367c8.306,9.126 17.859,17.499 23.802,28.485c5.981,11.46 6.788,24.947 2.217,37.038c-5.248,15.05 -15.589,27.317 -26.12,38.961c-11.692,12.929 -24.041,26.173 -29.011,43.314c-0.602,2.076 -3.789,1.02 -3.188,-1.053c8.647,-29.822 37.596,-46.761 51.401,-73.62c6.442,-12.534 9.146,-27.084 3.107,-40.315c-5.281,-11.569 -15.125,-20.211 -23.615,-29.379c-9.016,-9.239 -15.633,-20.547 -19.271,-32.932c-3.283,-13.147 -4.304,-26.757 -3.02,-40.246c2.406,-30.414 9.579,-60.262 21.257,-88.448c13.149,-32.242 31.717,-61.999 54.9,-87.98c1.435,-1.607 3.648,0.921 2.221,2.518l0.001,0Z" style="fill:#fff;fill-rule:nonzero;"/><path d="M1243.09,2397.22c-21.337,-5.181 -35.924,-25.256 -34.261,-47.149c0.171,-2.154 3.526,-1.989 3.354,0.167c-1.587,20.39 12.057,39.086 31.96,43.793c2.102,0.5 1.037,3.686 -1.053,3.189Z" style="fill:#fff;fill-rule:nonzero;"/><path d="M1257.27,2488.28c18.732,-11.185 32.572,-29.035 38.739,-49.963c0.61,-2.074 3.797,-1.019 3.189,1.053c-6.459,21.766 -20.9,40.312 -40.418,51.909c-1.862,1.104 -3.362,-1.901 -1.51,-2.999l-0,-0Z" style="fill:#fff;fill-rule:nonzero;"/><path d="M1275.91,2305.1c7.734,3.675 16.822,3.214 24.144,-1.226c1.847,-1.127 3.345,1.879 1.51,2.999c-8.11,4.866 -18.128,5.397 -26.707,1.415c-0.854,-0.313 -1.325,-1.247 -1.067,-2.12c0.292,-0.872 1.246,-1.352 2.12,-1.068Z" style="fill:#fff;fill-rule:nonzero;"/><path d="M1535.81,2382.29c-1.133,0.736 -2.266,1.473 -3.401,2.238c-15.184,9.985 -29.531,21.186 -42.901,33.494c-1.048,0.935 -2.097,1.899 -3.117,2.862c-31.894,29.995 -57.943,65.653 -76.82,105.157c-7.497,15.727 -13.788,32.001 -18.816,48.682c-6.943,23.038 -12.638,48.569 -26.381,67.413c-1.412,1.982 -2.945,3.875 -4.591,5.667l-124.199,0c-0.283,-0.142 -0.566,-0.255 -0.85,-0.397l-4.959,0.227c0.199,-0.878 0.425,-1.785 0.624,-2.664c0.114,-0.51 0.255,-1.02 0.368,-1.53c0.085,-0.34 0.17,-0.68 0.227,-0.991c0.028,-0.114 0.057,-0.227 0.084,-0.312c0.057,-0.312 0.143,-0.595 0.2,-0.878c1.246,-5.073 2.531,-10.145 3.853,-15.217c0,-0.028 0,-0.028 0.028,-0.057c9.706,-38.746 23.974,-76.204 42.505,-111.589c0.567,-1.049 1.133,-2.125 1.757,-3.174c8.581,-15.663 18.428,-30.599 29.442,-44.658c6.056,-7.679 12.496,-15.047 19.297,-22.074c17.607,-18.125 37.956,-33.368 60.3,-45.169c44.546,-23.519 96.117,-32.53 143.723,-18.163c1.218,0.368 2.409,0.736 3.627,1.133Z" style="fill:#f0f0f0;fill-rule:nonzero;"/><path d="M1535.53,2383.87c-61.837,12.281 -118.257,43.749 -161.2,89.907c-9.423,9.774 -17.246,20.972 -23.181,33.182c-5.397,12.08 -7.461,25.388 -5.977,38.536c1.137,12.287 3.724,24.724 1.854,37.074c-2.124,12.751 -9.599,24.005 -20.529,30.907c-13.251,8.857 -28.894,12.425 -44.313,15.383c-17.119,3.284 -34.953,6.423 -49.241,17.117c-1.731,1.295 -3.64,-1.467 -1.912,-2.76c24.859,-18.605 58.171,-14.701 85.366,-27.835c12.689,-6.129 23.609,-16.119 26.752,-30.318c2.749,-12.417 0.093,-25.245 -1.167,-37.676c-1.635,-12.805 -0.111,-25.818 4.441,-37.897c5.294,-12.473 12.673,-23.954 21.82,-33.952c20.232,-22.835 43.93,-42.348 70.224,-57.823c29.911,-17.827 62.652,-30.406 96.805,-37.193c2.114,-0.419 2.358,2.931 0.258,3.348l-0,-0Z" style="fill:#fff;fill-rule:nonzero;"/><path d="M1387.29,2458.1c-13.917,-16.983 -13.478,-41.794 1.032,-58.274c1.433,-1.616 4.012,0.535 2.577,2.154c-13.544,15.324 -13.906,38.467 -0.849,54.208c1.378,1.664 -1.39,3.566 -2.76,1.912l0,-0Z" style="fill:#fff;fill-rule:nonzero;"/><path d="M1343.78,2539.34c21.691,2.348 43.489,-3.571 61.013,-16.568c1.735,-1.289 3.645,1.472 1.912,2.76c-18.262,13.491 -40.958,19.604 -63.525,17.112c-2.151,-0.239 -1.54,-3.542 0.6,-3.304l0,0Z" style="fill:#fff;fill-rule:nonzero;"/><path d="M1468.95,2404.3c3.963,7.591 11.497,12.694 20.016,13.558c2.153,0.211 1.54,3.513 -0.6,3.303c-9.404,-0.998 -17.723,-6.606 -22.176,-14.949c-0.494,-0.765 -0.307,-1.794 0.425,-2.336c0.758,-0.52 1.808,-0.329 2.335,0.424Z" style="fill:#fff;fill-rule:nonzero;"/><path d="M2090.71,2011.18c-60.918,-134.748 -58.672,-305.547 35.871,-419.253c31.623,157.634 118.043,299.098 243.862,399.188c48.675,38.434 106.815,76.113 120.112,136.691c8.274,37.693 -3.454,77.561 -23.729,110.394c-20.277,32.835 -48.54,59.844 -76.481,86.462l-3.135,9.109c-121.582,-84.178 -235.581,-187.843 -296.5,-322.591Z" style="fill:#f0f0f0;fill-rule:nonzero;"/><path d="M2129.22,1593.57c-21.95,120.398 -5.398,244.706 47.291,355.166c10.922,23.984 25.557,46.098 43.365,65.525c17.958,18.363 40.51,31.585 65.304,38.287c22.995,6.713 47.293,10.918 68.255,23.104c21.504,12.933 36.488,34.458 41.149,59.115c6.535,30.241 1.815,61.027 -3.847,90.973c-6.287,33.249 -13.344,67.685 -4.233,101.109c1.103,4.05 -5.245,5.526 -6.347,1.482c-15.851,-58.152 14.966,-115.506 10.659,-173.972c-2.01,-27.281 -12.254,-54.122 -35.646,-69.928c-20.455,-13.822 -45.507,-18.179 -68.849,-24.776c-24.283,-6.183 -46.687,-18.221 -65.248,-35.057c-18.739,-18.458 -34.202,-39.971 -45.724,-63.616c-26.789,-52.82 -45.107,-109.524 -54.282,-168.034c-10.842,-66.719 -10.191,-134.803 1.925,-201.301c0.752,-4.116 6.975,-2.166 6.228,1.923l-0,0Z" style="fill:#fff;fill-rule:nonzero;"/><path d="M2157.44,1914.16c-40.589,13.008 -85.068,-5.488 -104.465,-43.441c-1.896,-3.741 3.828,-6.862 5.726,-3.116c18.002,35.384 59.523,52.551 97.257,40.21c3.988,-1.299 5.447,5.055 1.482,6.347Z" style="fill:#fff;fill-rule:nonzero;"/><path d="M2273.07,2050.68c19.715,-37.484 24.581,-81.059 13.622,-121.969c-1.089,-4.053 5.259,-5.53 6.347,-1.482c11.325,42.593 6.168,87.93 -14.433,126.891c-1.967,3.713 -7.492,0.253 -5.536,-3.44l-0,0Z" style="fill:#fff;fill-rule:nonzero;"/><path d="M2118.6,1728.35c16.531,-1.738 31.119,-11.697 38.757,-26.461c1.919,-3.736 7.442,-0.272 5.536,3.44c-8.511,16.266 -24.571,27.283 -42.811,29.367c-1.732,0.347 -3.458,-0.725 -3.914,-2.432c-0.398,-1.739 0.696,-3.5 2.432,-3.914Z" style="fill:#fff;fill-rule:nonzero;"/><path d="M2627.27,1593.25c-1.131,2.367 -2.263,4.734 -3.368,7.15c-15.051,31.904 -27.485,64.978 -37.18,98.896c-0.791,2.61 -1.553,5.267 -2.268,7.895c-22.485,81.963 -29.557,167.392 -20.858,251.937c3.493,33.639 9.54,66.965 18.089,99.687c11.809,45.19 28.208,93.248 24.508,138.371c-0.334,4.713 -0.959,9.399 -1.871,14.034l-205.752,125.672c-0.611,0.051 -1.196,0.15 -1.809,0.203l-7.985,5.393c-0.559,-1.657 -1.103,-3.387 -1.662,-5.044c-0.328,-0.96 -0.61,-1.948 -0.938,-2.907c-0.204,-0.649 -0.407,-1.299 -0.628,-1.873c-0.069,-0.216 -0.135,-0.433 -0.176,-0.602c-0.221,-0.574 -0.366,-1.13 -0.558,-1.657c-3.067,-9.664 -6.072,-19.366 -9.014,-29.107c-0.029,-0.047 -0.029,-0.047 -0.011,-0.122c-22.227,-74.278 -38.448,-151.064 -42.498,-227.871c-0.122,-2.31 -0.274,-4.667 -0.301,-7.035c-1.633,-34.631 -0.434,-69.338 3.587,-103.774c2.262,-18.848 5.477,-37.571 9.632,-56.094c10.829,-47.842 29.116,-93.683 54.19,-135.842c49.997,-84.036 126.314,-151.147 219.717,-175.518c2.39,-0.622 4.736,-1.217 7.154,-1.792Z" style="fill:#f0f0f0;fill-rule:nonzero;"/><path d="M2628.4,1596.14c-90.014,82.916 -151.64,192.134 -176.075,312.053c-5.72,25.726 -7.349,52.193 -4.826,78.426c3.282,25.473 13.328,49.609 29.09,69.887c14.318,19.205 31.187,37.191 40.587,59.542c9.384,23.273 8.388,49.481 -2.736,71.974c-12.989,28.081 -35.293,49.82 -57.844,70.321c-25.038,22.762 -51.405,46.009 -64.255,78.181c-1.557,3.898 -7.514,1.254 -5.959,-2.638c22.356,-55.974 81.492,-83.214 113.254,-132.489c14.82,-22.993 22.801,-50.591 13.641,-77.295c-8.011,-23.352 -25.391,-41.914 -40.056,-61.234c-15.666,-19.558 -26.307,-42.658 -30.99,-67.275c-3.85,-26.02 -3.243,-52.507 1.793,-78.323c10.411,-58.303 29.926,-114.607 57.827,-166.848c31.512,-59.798 73.023,-113.768 122.734,-159.569c3.078,-2.833 6.873,2.471 3.815,5.286l-0,0.001Z" style="fill:#fff;fill-rule:nonzero;"/><path d="M2457.92,1869.11c-40.24,-14.051 -64.618,-55.598 -57.255,-97.58c0.738,-4.128 7.187,-3.174 6.448,0.959c-6.93,39.091 15.886,77.796 53.445,90.661c3.966,1.364 1.305,7.316 -2.638,5.96Z" style="fill:#fff;fill-rule:nonzero;"/><path d="M2468.05,2047.73c38.309,-18.059 68.43,-49.921 84.31,-89.183c1.571,-3.893 7.529,-1.25 5.96,2.637c-16.601,40.827 -48.014,73.921 -87.921,92.625c-3.806,1.781 -6.134,-4.308 -2.349,-6.079l0,0Z" style="fill:#fff;fill-rule:nonzero;"/><path d="M2538.78,1697.36c14.245,8.566 31.889,9.397 46.876,2.208c3.782,-1.829 6.106,4.263 2.349,6.079c-16.589,7.863 -36.045,6.99 -51.863,-2.327c-1.592,-0.766 -2.324,-2.661 -1.661,-4.299c0.73,-1.628 2.663,-2.375 4.299,-1.661Z" style="fill:#fff;fill-rule:nonzero;"/><path d="M3022.97,2167.21l231.433,-175.709l112.805,112.809l-377.021,258l32.783,-195.101Z" style="fill:#3f3d56;fill-rule:nonzero;"/><path d="M2807.12,2651.02l-791.674,0l27.766,-89.966c172.09,-62.298 75.427,-196.203 239.125,-278.052c400.395,-200.197 555.404,-797.608 496.773,-1033.77l262.387,-11.094c0,0 362.358,1029.04 -234.377,1412.88Z" style="fill:#3f3d56;fill-rule:nonzero;"/><path d="M3482.99,2228.12c-48.627,42.762 -121.758,44.13 -171.949,3.217l-0.515,-0.423l-0.018,-0.661c-0.289,-11.022 -2.007,-21.96 -5.111,-32.54c-0.156,7.617 -1.267,15.183 -3.307,22.523l-0.663,2.47l-1.779,-1.836c-1.536,-1.583 -3.022,-3.192 -4.418,-4.779c-8.212,-9.321 -15.091,-19.737 -20.438,-30.949c-25.6,-52.649 -62.694,-98.885 -108.541,-135.29c-8.185,-6.658 -15.802,-13.987 -22.77,-21.91c-30.106,-34.252 -46.723,-78.328 -46.723,-123.93c0,-102.982 84.742,-187.723 187.723,-187.723c33.292,-0 65.992,8.856 94.734,25.657l1.173,0.687l-0.609,1.214c-4.458,9.253 -10.346,17.746 -17.447,25.166c9.763,-5.274 18.796,-11.8 26.87,-19.413l0.853,-0.804l0.966,0.666c12.646,8.748 24.175,19.01 34.329,30.558l1.094,1.254c15.668,17.921 38.252,28.343 62.055,28.637c72.12,1.213 130.788,60.876 130.788,133.007c-0,7.656 -0.661,15.298 -1.976,22.841l-0.151,0.879l-0.855,0.259c-14.928,5.127 -30.76,7.103 -46.491,5.801c13.136,5.721 27.129,9.226 41.411,10.372l1.845,0.146l-0.586,1.757c-7.439,22.338 -20.682,42.305 -38.367,57.848l-0.505,0.442c-0.179,0.155 -0.358,0.312 -0.536,0.469c-26.614,22.916 -42.893,55.623 -45.129,90.672c-1.77,35.999 -17.988,69.805 -44.957,93.716Z" style="fill:#6c63ff;fill-rule:nonzero;"/><path d="M3507.21,2185.35c-0.24,4.791 -0.739,9.566 -1.496,14.304c12.965,-19.908 20.425,-42.9 21.62,-66.628c0.177,-3.632 0.558,-7.251 1.069,-10.853c-12.595,18.778 -19.916,40.601 -21.193,63.177Z" style="fill-opacity:0.15;fill-rule:nonzero;"/><path d="M3549.07,2023.65c10.565,4.576 21.694,7.723 33.091,9.356c4.391,-4.634 8.444,-9.578 12.125,-14.794c-14.545,4.867 -29.932,6.718 -45.216,5.438Z" style="fill-opacity:0.15;fill-rule:nonzero;"/><path d="M3597.84,1979.96c1.177,11.5 0.859,23.103 -0.946,34.521c6.31,-9.599 11.344,-19.98 14.973,-30.88l0.586,-1.757l-1.845,-0.146c-4.282,-0.366 -8.543,-0.946 -12.768,-1.738Z" style="fill-opacity:0.15;fill-rule:nonzero;"/><path d="M3585.53,1853.69c-24.752,-28.083 -60.22,-44.482 -97.648,-45.151c-23.802,-0.294 -46.387,-10.716 -62.055,-28.636l-1.094,-1.255c-10.154,-11.548 -21.682,-21.81 -34.329,-30.557l-0.966,-0.666l-0.852,0.804c-8.074,7.612 -17.108,14.138 -26.871,19.413c7.101,-7.421 12.99,-15.914 17.448,-25.167l0.608,-1.214l-1.172,-0.687c-28.741,-16.821 -61.45,-25.688 -94.751,-25.688c-87.696,-0 -164.257,61.497 -183.169,147.129c33.32,-58.532 95.698,-94.798 163.049,-94.798c33.299,-0 66.005,8.865 94.746,25.681l1.173,0.686l-0.609,1.215c-4.458,9.253 -10.346,17.746 -17.447,25.166c9.763,-5.274 18.796,-11.8 26.87,-19.413l0.853,-0.804l0.966,0.666c12.646,8.748 24.175,19.01 34.329,30.558l1.094,1.254c15.668,17.921 38.252,28.343 62.055,28.637c63.247,1.068 117.417,47.102 128.676,109.348c6.508,-1.166 12.938,-2.73 19.254,-4.686l0.855,-0.258l0.152,-0.879c6.994,-39.693 -4.49,-80.484 -31.165,-110.698Z" style="fill-opacity:0.15;fill-rule:nonzero;"/><path d="M3865.63,1305.88c-0.02,208.502 -152.23,388.224 -357.884,422.571l-2.116,0.345l-1.637,-1.365c-27.264,-22.738 -57.363,-41.844 -89.542,-56.839c18.082,16.574 34.014,35.352 47.422,55.892l4.561,6.856l-8.22,0.396c-7.096,0.345 -14.146,0.518 -20.952,0.518c-39.999,0.034 -79.809,-5.486 -118.29,-16.402c-174.801,-49.733 -362.512,-58.237 -557.914,-25.278c-33.505,5.631 -67.421,8.461 -101.396,8.459c-333.176,0 -604.235,-271.115 -604.235,-604.355c-0.368,-259.934 167.266,-492.224 414.074,-573.78l4.155,-1.376l1.64,4.054c12.892,30.456 20.905,62.753 23.744,95.702c8.011,-34.822 11.442,-70.54 10.206,-106.25l-0.131,-3.77l3.665,-0.919c48.042,-11.973 97.37,-18.024 146.882,-18.016l5.361,0.022c76.647,0.228 149.871,-32.212 201.199,-89.136c81.134,-89.172 196.259,-140.071 316.818,-140.071c129.723,-0 252.664,58.931 333.912,160.059l1.805,2.234l-1.192,2.617c-25.028,55.163 -52.295,95.351 -84.842,124.74c41.766,-19.593 79.998,-45.972 113.139,-78.064l4.277,-4.149l3.002,5.151c38.188,65.492 58.3,139.968 58.271,215.78l-0.006,2.161c-0.005,0.763 -0.005,1.531 -0.005,2.294c-0,115.979 44.849,225.904 123.252,301.93c83.273,80.835 130.52,191.936 130.977,307.989Z" style="fill:#6c63ff;fill-rule:nonzero;"/><g opacity="0.15"><path d="M3341.92,293.552c-14.769,24.511 -32.942,46.803 -53.973,66.211c30.114,-14.139 58.426,-31.834 84.33,-52.707c-9.937,-4.895 -20.056,-9.397 -30.357,-13.504Z" style="fill-rule:nonzero;"/><path d="M3589.88,804.866c23.298,22.608 43.962,47.781 61.596,75.039c-26.537,-57.681 -40.213,-120.449 -40.077,-183.941c-0,-0.763 -0,-1.531 0.005,-2.294l0.006,-2.161c0.029,-75.812 -20.083,-150.288 -58.271,-215.78l-3.002,-5.151l-4.277,4.149c-23.618,22.828 -49.842,42.796 -78.129,59.492c7.292,104.292 50.834,201.494 122.149,270.647Z" style="fill-rule:nonzero;"/><path d="M3466.64,498.481l-0.006,2.161c-0.005,0.763 -0.005,1.531 -0.005,2.294c-0,4.205 0.076,8.399 0.193,12.587c20.175,-27.14 37.198,-56.486 50.742,-87.472l1.192,-2.617l-1.804,-2.234c-22.6,-28.122 -48.634,-53.302 -77.495,-74.95c17.97,48.048 27.177,98.932 27.183,150.231Z" style="fill-rule:nonzero;"/><path d="M3734.65,997.894c-20.608,-20.046 -38.92,-42.325 -54.597,-66.425c26.706,56.896 40.552,118.982 40.552,181.833c0,208.331 -152.132,387.897 -357.633,422.123l-2.116,0.346l-1.637,-1.365c-27.264,-22.738 -57.363,-41.844 -89.542,-56.839c18.082,16.574 34.014,35.352 47.421,55.892l4.562,6.856l-8.22,0.395c-7.096,0.346 -14.146,0.518 -20.952,0.518c-39.999,0.035 -79.809,-5.485 -118.29,-16.401c-174.801,-49.733 -362.512,-58.238 -557.914,-25.279c-33.504,5.632 -67.42,8.462 -101.395,8.46c-148.053,0.113 -291.062,-54.422 -401.445,-153.089c99.8,210.805 312.98,345.889 546.216,346.117c33.975,0.002 67.891,-2.828 101.395,-8.46c195.402,-32.958 383.113,-24.454 557.914,25.279c38.481,10.916 78.291,16.436 118.29,16.401c6.806,0 13.856,-0.172 20.952,-0.518l8.22,-0.395l-4.562,-6.856c-13.407,-20.54 -29.339,-39.318 -47.421,-55.892c32.179,14.995 62.278,34.101 89.542,56.839l1.637,1.365l2.116,-0.346c205.636,-34.209 357.884,-213.878 357.884,-422.34c0,-116.212 -47.316,-227.558 -130.977,-308.219l0,0Z" style="fill-rule:nonzero;"/></g><path d="M1718.64,1197.48c-23.058,-24.844 -35.015,-62.127 -22.755,-93.727c18.359,31.953 47.449,56.399 82.086,68.983c13.378,4.806 28.759,8.758 36.063,20.953c4.221,7.885 5.255,17.097 2.888,25.721c-2.386,8.528 -5.855,16.716 -10.321,24.363l-0.018,2.208c-32.556,-9.434 -64.885,-23.656 -87.943,-48.501Z" style="fill:#6c63ff;fill-rule:nonzero;"/><path d="M2863.94,1918.12c-23.058,-24.845 -35.016,-62.127 -22.755,-93.727c18.359,31.953 47.448,56.399 82.085,68.983c13.379,4.806 28.76,8.758 36.064,20.953c4.221,7.885 5.255,17.097 2.887,25.721c-2.386,8.528 -5.854,16.716 -10.321,24.363l-0.017,2.208c-32.557,-9.434 -64.885,-23.656 -87.943,-48.501Z" style="fill:#6c63ff;fill-rule:nonzero;"/><path d="M3403.99,2383.23c-16.108,-29.824 -18.356,-68.912 1.421,-96.439c9.78,35.53 31.827,66.477 62.213,87.327c11.751,8.001 25.654,15.676 29.673,29.311c2.114,8.69 0.811,17.868 -3.64,25.625c-4.443,7.66 -9.85,14.72 -16.088,21.006l-0.57,2.133c-29.16,-17.28 -56.901,-39.139 -73.009,-68.963Z" style="fill:#6c63ff;fill-rule:nonzero;"/><path d="M3793.26,1807.36c-16.108,-29.824 -18.356,-68.912 1.422,-96.439c9.779,35.53 31.826,66.477 62.212,87.328c11.751,8 25.654,15.675 29.674,29.31c2.114,8.69 0.81,17.868 -3.64,25.625c-4.444,7.66 -9.851,14.72 -16.089,21.006l-0.569,2.133c-29.161,-17.28 -56.902,-39.139 -73.01,-68.963Z" style="fill:#6c63ff;fill-rule:nonzero;"/><path d="M1248.51,2029.34c-16.107,-29.824 -18.356,-68.912 1.422,-96.439c9.78,35.53 31.826,66.478 62.213,87.328c11.751,8 25.653,15.675 29.673,29.311c2.114,8.689 0.81,17.867 -3.64,25.624c-4.444,7.66 -9.851,14.72 -16.089,21.006l-0.569,2.133c-29.16,-17.28 -56.902,-39.139 -73.01,-68.963Z" style="fill:#e6e6e6;fill-rule:nonzero;"/><path d="M2703.03,2314.95c13.989,-112.488 83.703,-223.321 190.983,-259.928c-42.298,115.754 -42.289,242.824 0.025,358.572c16.485,44.59 39.463,92.469 23.957,137.41c-9.648,27.963 -33.25,49.357 -59.631,62.734c-26.384,13.378 -55.664,19.754 -84.578,26.002l-5.691,4.706c-45.9,-103.645 -79.054,-217.009 -65.065,-329.496Z" style="fill:#e6e6e6;fill-rule:nonzero;"/><path d="M2895.08,2057.15c-62.465,69.99 -101.306,157.921 -110.974,251.232c-2.438,20.054 -1.7,40.367 2.187,60.191c4.41,19.188 13.88,36.848 27.422,51.139c12.359,13.579 26.574,26.038 35.418,42.386c8.9,17.052 10.101,37.12 3.298,55.112c-7.808,22.394 -23.197,40.647 -38.866,57.974c-17.397,19.239 -35.773,38.946 -43.168,64.451c-0.896,3.09 -5.639,1.519 -4.744,-1.567c12.866,-44.374 55.942,-69.58 76.485,-109.547c9.585,-18.65 13.609,-40.301 4.622,-59.987c-7.858,-17.215 -22.506,-30.076 -35.139,-43.717c-13.415,-13.748 -23.261,-30.574 -28.675,-49.003c-4.884,-19.562 -6.403,-39.813 -4.493,-59.885c3.58,-45.257 14.254,-89.67 31.63,-131.611c19.566,-47.977 47.195,-92.255 81.691,-130.915c2.136,-2.392 5.428,1.371 3.306,3.747l0,0Z" style="fill:#fff;fill-rule:nonzero;"/><path d="M2785.45,2278.15c-31.749,-7.708 -53.456,-37.58 -50.98,-70.158c0.254,-3.204 5.246,-2.959 4.991,0.249c-2.362,30.341 17.94,58.16 47.555,65.165c3.128,0.743 1.544,5.483 -1.566,4.744Z" style="fill:#fff;fill-rule:nonzero;"/><path d="M2806.54,2413.65c27.874,-16.643 48.468,-43.204 57.645,-74.344c0.907,-3.087 5.65,-1.517 4.744,1.566c-9.61,32.388 -31.098,59.985 -60.142,77.24c-2.77,1.643 -5.002,-2.828 -2.247,-4.462l0,0Z" style="fill:#fff;fill-rule:nonzero;"/><path d="M2834.28,2141.07c11.508,5.469 25.031,4.783 35.926,-1.824c2.748,-1.677 4.977,2.796 2.247,4.463c-12.067,7.239 -26.975,8.029 -39.74,2.105c-1.271,-0.465 -1.972,-1.856 -1.588,-3.155c0.435,-1.297 1.854,-2.011 3.155,-1.589Z" style="fill:#fff;fill-rule:nonzero;"/><path d="M3221.01,2255.94c-1.686,1.096 -3.372,2.193 -5.061,3.331c-22.593,14.857 -43.942,31.525 -63.836,49.839c-1.56,1.391 -3.121,2.825 -4.638,4.258c-47.458,44.633 -86.219,97.692 -114.309,156.474c-11.156,23.402 -20.515,47.618 -27.997,72.439c-10.332,34.28 -18.806,72.271 -39.256,100.31c-2.101,2.95 -4.382,5.766 -6.831,8.433l-184.809,0c-0.42,-0.211 -0.842,-0.379 -1.264,-0.59l-7.379,0.337c0.297,-1.307 0.632,-2.656 0.929,-3.963c0.169,-0.759 0.379,-1.518 0.547,-2.277c0.126,-0.506 0.254,-1.012 0.338,-1.476c0.041,-0.168 0.084,-0.337 0.125,-0.464c0.085,-0.463 0.213,-0.885 0.297,-1.307c1.855,-7.547 3.766,-15.095 5.734,-22.642c-0,-0.042 -0,-0.042 0.041,-0.085c15.139,-57.47 35.208,-114.182 63.247,-166.045c0.844,-1.56 1.686,-3.162 2.615,-4.722c12.768,-23.307 27.42,-45.532 43.81,-66.452c9.011,-11.426 18.595,-22.389 28.714,-32.846c26.2,-26.969 56.479,-49.651 89.726,-67.211c66.284,-34.997 143.023,-48.405 213.861,-27.027c1.812,0.548 3.584,1.096 5.396,1.686Z" style="fill:#e6e6e6;fill-rule:nonzero;"/><path d="M3220.6,2258.28c-92.014,18.275 -175.967,65.098 -239.866,133.781c-14.021,14.543 -25.661,31.207 -34.493,49.375c-8.031,17.976 -11.103,37.778 -8.894,57.341c1.692,18.284 5.541,36.79 2.76,55.167c-3.161,18.974 -14.284,35.72 -30.548,45.99c-19.717,13.179 -42.994,18.489 -65.937,22.889c-25.474,4.886 -52.011,9.558 -73.271,25.47c-2.576,1.928 -5.417,-2.182 -2.845,-4.107c36.99,-27.684 86.559,-21.875 127.024,-41.418c18.882,-9.119 35.13,-23.984 39.808,-45.113c4.09,-18.477 0.137,-37.564 -1.736,-56.062c-2.434,-19.053 -0.166,-38.416 6.607,-56.391c7.878,-18.56 18.858,-35.644 32.468,-50.52c30.106,-33.979 65.368,-63.014 104.493,-86.04c44.508,-26.527 93.227,-45.245 144.046,-55.344c3.146,-0.624 3.509,4.362 0.384,4.982l-0,-0Z" style="fill:#fff;fill-rule:nonzero;"/><path d="M3000.01,2368.73c-20.71,-25.269 -20.056,-62.189 1.534,-86.71c2.133,-2.405 5.97,0.795 3.835,3.204c-20.152,22.803 -20.692,57.239 -1.263,80.662c2.05,2.476 -2.069,5.307 -4.107,2.844Z" style="fill:#fff;fill-rule:nonzero;"/><path d="M2935.27,2489.62c32.276,3.493 64.711,-5.315 90.787,-24.654c2.583,-1.919 5.425,2.191 2.845,4.107c-27.173,20.074 -60.945,29.171 -94.524,25.463c-3.201,-0.356 -2.291,-5.27 0.892,-4.916l0,-0Z" style="fill:#fff;fill-rule:nonzero;"/><path d="M3121.53,2288.69c5.896,11.295 17.106,18.889 29.783,20.174c3.204,0.315 2.291,5.229 -0.893,4.916c-13.993,-1.485 -26.372,-9.83 -32.997,-22.245c-0.735,-1.138 -0.457,-2.67 0.631,-3.476c1.128,-0.773 2.691,-0.489 3.476,0.631Z" style="fill:#fff;fill-rule:nonzero;"/><path d="M1764.97,2330.37l-153.388,-116.454l-74.762,74.762l249.879,170.996l-21.729,-129.304Z" style="fill:#3f3d56;fill-rule:nonzero;"/><path d="M1908.02,2651.02l524.694,0l-18.402,-59.626c-114.056,-41.289 -49.991,-130.037 -158.484,-184.283c-265.367,-132.684 -368.102,-528.627 -329.244,-685.144l-173.901,-7.353c0,-0 -240.158,682.014 155.337,936.406Z" style="fill:#3f3d56;fill-rule:nonzero;"/><path d="M1430.29,2308.62c-1.482,-23.229 -12.271,-44.907 -29.91,-60.094c-0.117,-0.104 -0.236,-0.209 -0.355,-0.312l-0.335,-0.292c-11.721,-10.302 -20.497,-23.535 -25.428,-38.34l-0.388,-1.164l1.223,-0.097c9.465,-0.76 18.739,-3.083 27.445,-6.874c-10.426,0.862 -20.918,-0.447 -30.812,-3.845l-0.567,-0.171l-0.1,-0.583c-0.872,-4.999 -1.31,-10.064 -1.31,-15.139c0,-47.805 38.883,-87.348 86.682,-88.152c15.775,-0.195 30.743,-7.102 41.128,-18.979l0.725,-0.832c6.73,-7.653 14.37,-14.454 22.752,-20.252l0.64,-0.441l0.565,0.532c5.351,5.046 11.338,9.371 17.809,12.867c-4.706,-4.918 -8.609,-10.547 -11.563,-16.68l-0.404,-0.805l0.777,-0.455c19.049,-11.135 40.722,-17.004 62.787,-17.004c68.252,-0 124.416,56.163 124.416,124.416c-0,30.223 -11.013,59.435 -30.966,82.137c-4.619,5.251 -9.667,10.108 -15.092,14.521c-30.385,24.128 -54.97,54.771 -71.937,89.665c-3.544,7.431 -8.102,14.335 -13.545,20.512c-0.925,1.052 -1.911,2.118 -2.929,3.168l-1.178,1.216l-0.44,-1.637c-1.352,-4.864 -2.088,-9.879 -2.192,-14.927c-2.056,7.012 -3.195,14.261 -3.387,21.566l-0.012,0.438l-0.341,0.281c-15.729,12.837 -35.421,19.853 -55.723,19.853c-46.826,0 -85.894,-37.321 -88.035,-84.097Z" style="fill:#e6e6e6;fill-rule:nonzero;"/><path d="M1444.03,2342.39c0.159,3.175 0.49,6.34 0.992,9.48c-8.593,-13.194 -13.538,-28.433 -14.329,-44.159c-0.117,-2.407 -0.37,-4.805 -0.709,-7.193c8.348,12.446 13.2,26.909 14.046,41.872Z" style="fill-opacity:0.15;fill-rule:nonzero;"/><path d="M1416.29,2235.22c-7.003,3.033 -14.379,5.118 -21.932,6.201c-2.911,-3.072 -5.596,-6.348 -8.037,-9.805c9.641,3.226 19.838,4.452 29.969,3.604Z" style="fill-opacity:0.15;fill-rule:nonzero;"/><path d="M1383.96,2206.26c-0.78,7.621 -0.569,15.312 0.627,22.879c-4.182,-6.362 -7.519,-13.242 -9.924,-20.466l-0.388,-1.165l1.223,-0.097c2.838,-0.242 5.662,-0.626 8.462,-1.151Z" style="fill-opacity:0.15;fill-rule:nonzero;"/><path d="M1392.12,2122.58c16.404,-18.612 39.911,-29.481 64.717,-29.924c15.775,-0.195 30.744,-7.102 41.128,-18.979l0.725,-0.832c6.73,-7.653 14.371,-14.454 22.752,-20.252l0.64,-0.441l0.565,0.532c5.351,5.046 11.338,9.371 17.809,12.867c-4.706,-4.918 -8.609,-10.548 -11.563,-16.68l-0.404,-0.805l0.777,-0.455c19.049,-11.148 40.727,-17.026 62.798,-17.026c58.121,0 108.863,40.758 121.398,97.512c-22.084,-38.792 -63.425,-62.828 -108.063,-62.828c-22.07,-0 -43.746,5.875 -62.795,17.02l-0.777,0.455l0.403,0.805c2.955,6.132 6.857,11.761 11.564,16.679c-6.471,-3.495 -12.458,-7.821 -17.809,-12.866l-0.565,-0.533l-0.64,0.442c-8.382,5.797 -16.022,12.599 -22.752,20.252l-0.725,0.832c-10.384,11.877 -25.353,18.784 -41.128,18.979c-41.918,0.708 -77.82,31.217 -85.282,72.472c-4.313,-0.773 -8.575,-1.81 -12.761,-3.105l-0.567,-0.172l-0.1,-0.582c-4.636,-26.307 2.976,-53.342 20.655,-73.367Z" style="fill-opacity:0.15;fill-rule:nonzero;"/><path d="M1293.29,1555.39c51.963,-50.387 81.687,-123.242 81.687,-200.109c0,-0.505 0,-1.015 -0.003,-1.521l-0.004,-1.432c-0.019,-50.245 13.31,-99.605 38.62,-143.011l1.989,-3.414l2.835,2.75c21.965,21.269 47.304,38.753 74.985,51.738c-21.571,-19.478 -39.643,-46.113 -56.23,-82.673l-0.79,-1.735l1.195,-1.48c53.849,-67.024 135.33,-106.082 221.306,-106.082c79.902,0 156.203,33.734 209.976,92.835c34.018,37.726 82.549,59.226 133.348,59.075l3.552,-0.014c32.815,-0.005 65.508,4.005 97.349,11.94l2.429,0.609l-0.087,2.499c-0.819,23.667 1.455,47.34 6.764,70.419c1.882,-21.838 7.193,-43.243 15.737,-63.428l1.087,-2.687l2.753,0.912c163.423,54.231 274.434,208.033 274.434,380.219c-0,219.713 -180.753,400.53 -400.466,400.608c-22.517,0.001 -44.996,-1.875 -67.202,-5.607c-129.505,-21.844 -253.913,-16.208 -369.765,16.754c-25.504,7.234 -51.889,10.893 -78.399,10.87c-4.51,-0 -9.183,-0.114 -13.886,-0.343l-5.448,-0.262l3.023,-4.544c8.886,-13.614 19.446,-26.059 31.43,-37.044c-21.327,9.938 -41.276,22.601 -59.345,37.671l-1.086,0.905l-1.402,-0.229c-136.288,-22.673 -237.193,-141.751 -237.193,-279.912c0,-77.022 31.359,-150.818 86.807,-204.277Z" style="fill:#e6e6e6;fill-rule:nonzero;"/><g opacity="0.15"><path d="M1553.58,1088.57c9.789,16.245 21.833,31.02 35.772,43.882c-19.959,-9.37 -38.723,-21.097 -55.891,-34.932c6.586,-3.244 13.292,-6.227 20.119,-8.95Z" style="fill-rule:nonzero;"/><path d="M1389.24,1427.45c-15.441,14.984 -29.136,31.668 -40.823,49.734c17.588,-38.229 26.651,-79.83 26.561,-121.91c0,-0.506 0,-1.015 -0.003,-1.521l-0.004,-1.432c-0.019,-50.245 13.31,-99.605 38.62,-143.011l1.989,-3.414l2.835,2.75c15.653,15.129 33.033,28.363 51.781,39.429c-4.833,69.121 -33.69,133.544 -80.956,179.375Z" style="fill-rule:nonzero;"/><path d="M1470.92,1224.39l0.004,1.432c0.003,0.506 0.003,1.015 0.003,1.521c0,2.787 -0.05,5.567 -0.128,8.342c-13.371,-17.987 -24.653,-37.437 -33.63,-57.973l-0.789,-1.735l1.195,-1.48c14.978,-18.638 32.233,-35.327 51.361,-49.674c-11.909,31.844 -18.012,65.568 -18.016,99.567Z" style="fill-rule:nonzero;"/><path d="M1293.29,1555.39c13.658,-13.286 25.795,-28.052 36.185,-44.024c-17.7,37.708 -26.877,78.856 -26.877,120.512c0,138.075 100.828,257.084 237.027,279.769l1.402,0.229l1.086,-0.905c18.069,-15.07 38.018,-27.733 59.345,-37.671c-11.984,10.985 -22.543,23.43 -31.429,37.044l-3.024,4.544l5.448,0.262c4.703,0.229 9.376,0.343 13.886,0.343c26.51,0.023 52.895,-3.636 78.399,-10.87c115.852,-32.962 240.26,-38.598 369.765,-16.754c22.206,3.732 44.685,5.608 67.202,5.607c98.124,0.075 192.906,-36.07 266.064,-101.463c-66.144,139.715 -207.432,229.244 -362.013,229.395c-22.517,0.001 -44.996,-1.874 -67.202,-5.607c-129.505,-21.844 -253.913,-16.207 -369.765,16.754c-25.504,7.235 -51.889,10.893 -78.399,10.87c-4.51,0 -9.183,-0.114 -13.886,-0.343l-5.448,-0.262l3.023,-4.544c8.886,-13.614 19.445,-26.059 31.43,-37.044c-21.327,9.939 -41.276,22.601 -59.346,37.672l-1.085,0.904l-1.402,-0.229c-136.288,-22.673 -237.193,-141.751 -237.193,-279.912c-0,-77.022 31.359,-150.818 86.807,-204.277l-0,-0Z" style="fill-rule:nonzero;"/></g><path d="M201.934,2344.21c-94.353,-0.009 -175.682,-68.888 -191.224,-161.952l-0.157,-0.957l0.618,-0.741c10.289,-12.338 18.935,-25.958 25.721,-40.52c-7.5,8.182 -15.998,15.392 -25.293,21.459l-3.102,2.064l-0.179,-3.72c-0.156,-3.21 -0.235,-6.401 -0.235,-9.481c-0.015,-18.1 2.483,-36.116 7.423,-53.529c22.505,-79.102 26.353,-164.046 11.439,-252.471c-2.549,-15.162 -3.829,-30.509 -3.828,-45.884c0.052,-150.017 123.512,-273.433 273.529,-273.433c117.566,0 222.58,75.797 259.608,187.38l0.623,1.88l-1.835,0.742c-13.782,5.834 -28.397,9.46 -43.308,10.745c15.758,3.625 31.922,5.178 48.081,4.619l1.706,-0.06l0.416,1.659c5.418,21.74 8.156,44.062 8.153,66.468l-0.01,2.426c-0.103,34.684 14.577,67.821 40.336,91.048c40.353,36.715 63.386,88.812 63.386,143.368c0,58.703 -26.668,114.337 -72.431,151.104l-1.011,0.817l-1.184,-0.539c-24.963,-11.326 -43.149,-23.665 -56.448,-38.393c8.866,18.9 20.804,36.2 35.326,51.198l1.878,1.935l-2.332,1.359c-29.636,17.281 -63.339,26.382 -97.645,26.369l-0.978,-0.003c-0.346,-0.002 -0.693,-0.002 -1.039,-0.002c-51.17,-0.539 -100.456,19.58 -136.631,55.775c-36.58,37.683 -86.856,59.063 -139.373,59.27Z" style="fill:#e4e4e4;fill-rule:nonzero;"/><path d="M133.332,2649.64c-1.733,-0.002 -3.216,-1.291 -3.46,-3.006c-0.148,-1.044 -14.708,-106.047 -1.632,-245.599c12.076,-128.881 50.855,-314.514 167.023,-466.971c0.662,-0.87 1.693,-1.381 2.785,-1.381c1.92,-0 3.499,1.579 3.499,3.499c0,0.767 -0.252,1.513 -0.718,2.123c-115.165,151.141 -153.631,335.412 -165.622,463.382c-13,138.741 1.445,242.925 1.593,243.961c0.023,0.162 0.034,0.326 0.034,0.49c0,1.921 -1.58,3.502 -3.501,3.502c-0.001,-0 -0.001,-0 -0.001,-0l-0,-0Z" style="fill:#3f3d56;fill-rule:nonzero;"/><path d="M191.404,2135.66c-0.001,-0 -0.002,-0 -0.003,-0c-1.919,-0 -3.499,-1.58 -3.499,-3.499c0,-1.119 0.537,-2.172 1.442,-2.83c33.101,-22.406 68.86,-40.609 106.453,-54.19c58.731,-21.502 148.042,-40.995 239.985,-11.733c1.453,0.457 2.448,1.814 2.448,3.337c0,1.919 -1.579,3.498 -3.498,3.498c-0.364,0 -0.725,-0.057 -1.071,-0.168c-90.06,-28.661 -177.752,-9.49 -235.459,11.637c-36.988,13.349 -72.173,31.246 -104.745,53.279c-0.596,0.435 -1.315,0.669 -2.053,0.669Z" style="fill:#3f3d56;fill-rule:nonzero;"/><path d="M566.41,1990.47c12.425,-3.386 21.112,-14.756 21.112,-27.635c-0,-4.243 -0.943,-8.434 -2.761,-12.268l61.729,-201.25l-45.404,-9l-56.457,197.267c-9.106,5.079 -14.77,14.723 -14.77,25.151c0,15.798 13,28.798 28.799,28.798c2.62,0 5.228,-0.357 7.752,-1.063l-0,0Z" style="fill:#ffb6b6;fill-rule:nonzero;"/><path d="M650.087,1690.52c-6.552,-2.599 -13.766,-3.037 -20.584,-1.25l0,0.042c-2.298,0.551 -4.523,1.376 -6.625,2.458c-2.304,1.132 -4.46,2.545 -6.416,4.208c-4.232,3.512 -7.501,8.044 -9.5,13.167l-30.084,52.417c-1.749,3.007 -2.084,6.639 -0.916,9.916c1.141,3.296 3.671,5.932 6.916,7.209l6.5,2.541l30.875,12.125l11.375,4.5l7.667,3c1.398,0.552 2.887,0.835 4.389,0.835c5.557,0 10.417,-3.875 11.653,-9.293l13.583,-58.708c6.645,-17.007 -1.847,-36.471 -18.833,-43.167Z" style="fill:#3f3d56;fill-rule:nonzero;"/><path d="M739.55,2596.1l31.433,0l14.959,-121.233l-46.392,-0l0,121.233Z" style="fill:#ffb6b6;fill-rule:nonzero;"/><path d="M722.962,2650.56l22.54,-0.001l4.024,-21.28l10.304,21.281l59.783,-0c7.372,-0 13.439,-6.067 13.439,-13.439c-0,-4.412 -2.173,-8.552 -5.804,-11.059l-47.74,-32.97l0,-21.515l-50.214,2.998l-6.332,75.985Z" style="fill:#2f2e41;fill-rule:nonzero;"/><path d="M433.875,2533.74l27.033,16.033l74.709,-96.646l-39.9,-23.662l-61.842,104.275Z" style="fill:#ffb6b6;fill-rule:nonzero;"/><path d="M391.828,2572.12l19.387,11.497l14.316,-16.251l-1.992,23.56l51.419,30.494c2.075,1.231 4.444,1.88 6.856,1.88c7.372,0 13.439,-6.066 13.439,-13.438c-0,-1.939 -0.42,-3.856 -1.231,-5.617l-24.244,-52.711l10.974,-18.505l-44.719,-23.036l-44.205,62.127Z" style="fill:#2f2e41;fill-rule:nonzero;"/><path d="M753.579,1820.95l15.275,97.371l-145.104,1.912l19.096,-93.554l110.733,-5.729Z" style="fill:#ffb6b6;fill-rule:nonzero;"/><path d="M769.413,1917.09l41.444,100.511l3.019,268.791l-35.366,256.64l-39.14,-0l-16.035,-252.456l-39.442,-172.74l-38.9,180.668l-120.953,176.839l-59.435,-0l109.271,-194.871l12.646,-212.277c-0,0 -7.882,-90.053 32.457,-143.192l9.819,-28.368l140.615,20.455Z" style="fill:#2f2e41;fill-rule:nonzero;"/><path d="M771.42,1731.27c-0.083,-0.875 -0.208,-1.792 -0.375,-2.667c-6.486,-43.45 -47.481,-73.928 -90.958,-67.625c-19.738,2.958 -37.732,13.023 -50.584,28.292l0,0.042c-0.666,0.791 -1.291,1.625 -1.916,2.458c-1.125,1.417 -2.167,2.917 -3.167,4.417c-9.03,13.644 -13.683,29.725 -13.333,46.083l-0,0.042c0.131,6.304 1.012,12.571 2.625,18.666c2.775,10.663 4.959,21.472 6.541,32.375c1.084,6.917 1.917,13.709 2.542,20.334c0.375,3.333 0.667,6.625 0.917,9.833l-0,0.042c1.25,15.875 1.666,30.125 2.041,41.166c0.167,6 0.334,11 0.625,14.834c0.008,0.252 0.035,0.503 0.084,0.75c0.32,2.575 1.426,4.991 3.166,6.916c0.215,0.27 0.452,0.521 0.709,0.75c1.848,1.663 4.082,2.837 6.5,3.417c0.837,0.168 1.688,0.252 2.541,0.25l0.251,0l24.291,-11.333l19.167,-8.917l65.042,-30.333c5.445,-0.111 10.278,-3.611 12.083,-8.75l-0,-0.042c0.083,-0.333 0.208,-0.667 0.292,-1.042c3.5,-13.791 9.708,-28.583 11.916,-52.375c0.292,-3.416 0.542,-6.958 0.667,-10.75l-0,-0.041c0.366,-12.289 -0.192,-24.587 -1.667,-36.792Z" style="fill:#3f3d56;fill-rule:nonzero;"/><circle cx="681.089" cy="1586.45" r="61.352" style="fill:#ffb6b6;"/><path d="M615.587,1681.81c-26.73,0.034 -48.716,22.019 -48.75,48.75l-0,101.041c-0.009,23.342 16.767,43.569 39.708,47.875l0.042,0c2.968,0.554 5.981,0.833 9,0.834l67.5,-0l-0,-198.5l-67.5,-0Z" style="fill:#6c63ff;fill-rule:nonzero;"/><path d="M616.462,1691.77l-0,73.708c-0,4.663 3.837,8.5 8.5,8.5c4.663,0 8.5,-3.837 8.5,-8.5l-0,-73.708l-17,-0Z" style="fill:#3f3d56;fill-rule:nonzero;"/><path d="M653.921,1813.69l-49.418,0.001c-5.875,0.003 -10.708,4.838 -10.708,10.713c0,0.012 0,0.024 0,0.037l0,29.541c-0.005,5.884 4.825,10.732 10.708,10.75l49.417,0c5.892,-0.014 10.736,-4.858 10.75,-10.75l0,-29.542c0,-5.897 -4.852,-10.75 -10.749,-10.75Z" style="fill:#3f3d56;fill-rule:nonzero;"/><path d="M745.208,1804.34c13.473,-17.101 20.59,-38.366 20.124,-60.132c-0,-43.779 -26.076,-79.394 -58.128,-79.394c-17.208,-0 -33.419,10.284 -44.478,28.215l4.827,2.977c10.003,-16.218 24.455,-25.521 39.651,-25.521c28.925,-0 52.457,33.072 52.457,73.723c0.471,20.425 -6.17,40.392 -18.78,56.466l4.327,3.666Z" style="fill:#6c63ff;fill-rule:nonzero;"/><path d="M878.904,1952.58c1.949,-3.945 2.963,-8.287 2.963,-12.687c-0,-12.709 -8.458,-23.969 -20.664,-27.51l-109.714,-179.652l-36.843,28.019l110.228,173.065c-0.445,2.029 -0.67,4.099 -0.67,6.176c-0,15.799 13,28.799 28.798,28.799c11.007,-0 21.09,-6.31 25.902,-16.21Z" style="fill:#ffb6b6;fill-rule:nonzero;"/><path d="M789.587,1754.65l-18.542,-26.042l-9.916,-13.916l-6.459,-9.084c-2.027,-3.999 -4.849,-7.543 -8.291,-10.416c-5.995,-5.018 -13.57,-7.77 -21.388,-7.77c-18.279,0 -33.32,15.042 -33.32,33.321c-0,5.19 1.212,10.31 3.541,14.949l19.25,57.291c1.656,4.857 6.247,8.143 11.378,8.143c1.896,-0 3.766,-0.449 5.455,-1.309l6.209,-3.167l9.791,-5l8.792,-4.458l0.042,-0l16.291,-8.334l5.542,-2.791l7.333,-3.75c3.994,-2.065 6.513,-6.202 6.513,-10.699c-0,-2.496 -0.777,-4.932 -2.221,-6.968Z" style="fill:#3f3d56;fill-rule:nonzero;"/><path d="M3688.88,2654.63l-3676.96,0c-0.004,0 -0.008,0 -0.013,0c-2.101,0 -3.83,-1.729 -3.83,-3.831c-0,-2.101 1.729,-3.83 3.83,-3.83c0.005,-0 0.009,-0 0.013,-0l3676.96,-0c2.101,-0 3.83,1.729 3.83,3.83c0,2.102 -1.729,3.831 -3.83,3.831Z" style="fill:#ccc;fill-rule:nonzero;"/><path d="M1956.84,2333.51c-16.108,-29.824 -18.357,-68.912 1.421,-96.439c9.78,35.53 31.827,66.477 62.213,87.327c11.751,8.001 25.653,15.676 29.673,29.311c2.114,8.69 0.811,17.868 -3.64,25.625c-4.443,7.66 -9.85,14.72 -16.088,21.006l-0.57,2.133c-29.16,-17.28 -56.901,-39.139 -73.009,-68.963Z" style="fill:#e6e6e6;fill-rule:nonzero;"/><path d="M969.342,1579.34c-16.108,-29.824 -18.357,-68.912 1.421,-96.439c9.78,35.53 31.827,66.478 62.213,87.328c11.751,8 25.653,15.675 29.673,29.311c2.114,8.689 0.811,17.867 -3.64,25.624c-4.443,7.66 -9.85,14.72 -16.088,21.006l-0.57,2.133c-29.16,-17.28 -56.901,-39.139 -73.009,-68.963Z" style="fill:#e6e6e6;fill-rule:nonzero;"/><path d="M643.67,1536.39l0,0.043c0.006,2.669 -0.334,5.328 -1.013,7.909c-0.107,0.453 -0.237,0.927 -0.388,1.38l0,0.021c-2.929,9.339 -10.076,16.782 -19.288,20.086c-0.668,0.259 -1.358,0.474 -2.048,0.668c-1.453,0.422 -2.938,0.724 -4.439,0.906c-1.35,0.191 -2.711,0.284 -4.074,0.28c-1.065,0.004 -2.129,-0.046 -3.189,-0.151c-2.481,-0.251 -4.92,-0.809 -7.263,-1.66c-0.367,-0.106 -0.727,-0.236 -1.078,-0.388c-0.176,-0.062 -0.349,-0.134 -0.517,-0.215c-11.609,-4.859 -19.203,-16.271 -19.203,-28.855c0,-4.67 1.046,-9.281 3.061,-13.494l0.021,-0.022c1.532,-3.208 3.611,-6.125 6.142,-8.621c5.844,-5.83 13.772,-9.103 22.026,-9.094c0.41,-0.008 0.82,0.007 1.229,0.043c9.629,0.398 18.557,5.212 24.181,13.039c2.404,3.334 4.119,7.115 5.043,11.12c0.529,2.297 0.796,4.647 0.797,7.005Z" style="fill:#2f2e41;fill-rule:nonzero;"/><path d="M607.607,1517.44c-5.916,-22.295 -26.25,-37.937 -49.316,-37.937c-20.77,-0 -39.557,12.682 -47.323,31.946c-6.712,16.652 -4.252,35.547 -8.273,53.045c-8.307,32.556 -37.538,55.737 -71.131,56.408l60.822,24.507c6.494,3.321 13.777,4.796 21.051,4.265c10.583,-1.794 17.947,-11.903 20.929,-22.214c2.981,-10.312 2.739,-21.263 4.626,-31.83c4.968,-26.332 22.653,-48.57 47.19,-59.339c6.848,-2.926 14.459,-5.132 19.301,-10.79c4.842,-5.657 4.572,-16.331 -2.445,-18.823" style="fill:#2f2e41;fill-rule:nonzero;"/><path d="M706.17,1517.69c-8.25,-18.028 -30.019,-14.36 -49.702,-11.982c-19.936,3.076 -37.113,15.822 -45.833,34.012c-8.411,18.17 -10.02,38.77 -4.533,58.025c2.944,13.116 9.974,24.967 20.072,33.838c10.395,8.36 59.262,28.131 63.33,11.107c-5.086,22.21 5.145,18.733 20.289,35.757c7.843,-23.563 11.521,-67.958 19.364,-91.52l3.542,-10.64c2.489,-7.477 4.981,-14.965 6.78,-22.637c2.259,-9.637 3.128,-20.688 -2.858,-28.571c-5.986,-7.883 -21.066,-8.19 -24.092,1.235" style="fill:#2f2e41;fill-rule:nonzero;"/><path d="M696.293,1592.72l-2.623,-16.695c1.782,-20.764 -1.127,-53.792 12.5,-58.333l8.334,8.333c-5.272,1.758 -15.298,32.808 -18.211,66.695Z" style="fill:#ff6584;fill-rule:nonzero;"/></svg>