<?xml version="1.0" encoding="UTF-8" standalone="no"?><!DOCTYPE svg PUBLIC "-//W3C//DTD SVG 1.1//EN" "http://www.w3.org/Graphics/SVG/1.1/DTD/svg11.dtd"><svg width="100%" height="100%" viewBox="0 0 3888 2655" version="1.1" xmlns="http://www.w3.org/2000/svg" xmlns:xlink="http://www.w3.org/1999/xlink" xml:space="preserve" xmlns:serif="http://www.serif.com/" style="fill-rule:evenodd;clip-rule:evenodd;stroke-linejoin:round;stroke-miterlimit:2;"><circle cx="1150.16" cy="212.5" r="212.5" style="fill:#ff6584;"/><path d="M1533.64,49.46c-102.986,-13.921 -220.563,41.744 -247.255,142.181c-13.176,-34.977 -46.833,-58.264 -84.209,-58.264c-40.736,-0 -76.632,27.66 -87.014,67.051l11.79,8.444c220.69,47.725 449.163,46.692 669.412,-3.026c-71.637,-75.288 -159.737,-142.466 -262.724,-156.386Z" style="fill:#f0f0f0;fill-rule:nonzero;"/><path d="M1091.98,332.793c-102.987,-13.92 -220.563,41.745 -247.256,142.182c-13.175,-34.978 -46.832,-58.265 -84.209,-58.265c-40.735,-0 -76.631,27.661 -87.014,67.051l11.791,8.444c220.69,47.725 449.162,46.692 669.411,-3.026c-71.637,-75.287 -159.737,-142.465 -262.723,-156.386Z" style="fill:#f0f0f0;fill-rule:nonzero;"/></svg>